<svg viewBox="0 0 330.45 71.25" xmlns="http://www.w3.org/2000/svg"><g id="svgGroup" stroke-linecap="round" fill-rule="evenodd" font-size="9pt" stroke="#00000000" stroke-width=".5mm"><path d="M 322.275 29.7 L 322.275 55.5 L 330.45 55.5 L 330.45 29.475 Q 330.45 26.998 329.966 25.112 A 11.558 11.558 0 0 0 329.775 24.45 A 12.11 12.11 0 0 0 329.035 22.638 A 8.926 8.926 0 0 0 327.938 20.963 Q 326.775 19.575 325.238 18.75 Q 323.7 17.925 321.975 17.55 Q 320.25 17.175 318.45 17.175 Q 316.875 17.175 315.413 17.625 A 20.853 20.853 0 0 0 313.903 18.151 A 16.157 16.157 0 0 0 312.788 18.638 A 65.538 65.538 0 0 0 312.237 18.907 Q 311.609 19.218 311.158 19.461 A 18.895 18.895 0 0 0 310.95 19.575 L 310.95 17.85 L 302.7 17.85 L 302.7 55.5 L 310.95 55.5 L 310.95 26.475 Q 312.15 25.8 313.2 25.388 A 10.876 10.876 0 0 1 314.284 25.023 A 8.388 8.388 0 0 1 315.188 24.825 A 12.189 12.189 0 0 1 316.261 24.7 A 9.87 9.87 0 0 1 316.95 24.675 A 6.631 6.631 0 0 1 318.22 24.792 A 5.386 5.386 0 0 1 319.125 25.05 A 5.146 5.146 0 0 1 320.56 25.877 A 4.827 4.827 0 0 1 320.813 26.1 Q 321.525 26.775 321.9 27.713 Q 322.275 28.65 322.275 29.7 Z M 108.675 26.475 L 111.225 19.575 A 11.708 11.708 0 0 0 109.295 18.479 A 14.085 14.085 0 0 0 108.3 18.075 Q 106.65 17.475 104.888 17.175 A 20.833 20.833 0 0 0 102.15 16.888 A 18.54 18.54 0 0 0 101.475 16.875 Q 99.15 16.875 96.9 17.513 Q 94.65 18.15 92.813 19.463 Q 90.975 20.775 89.925 22.8 A 9.12 9.12 0 0 0 89.055 25.431 A 12.484 12.484 0 0 0 88.875 27.6 A 11.577 11.577 0 0 0 89.042 29.618 Q 89.249 30.789 89.714 31.753 A 7.062 7.062 0 0 0 89.812 31.95 Q 90.75 33.75 92.288 35.025 Q 93.825 36.3 95.663 37.163 Q 97.5 38.025 99.337 38.775 A 47.023 47.023 0 0 1 101.466 39.703 A 38.152 38.152 0 0 1 102.713 40.313 Q 104.115 41.031 105.018 41.905 A 6.689 6.689 0 0 1 105.188 42.075 A 3.326 3.326 0 0 1 106.106 44.137 A 4.469 4.469 0 0 1 106.125 44.55 A 4.052 4.052 0 0 1 106.004 45.562 A 3.237 3.237 0 0 1 105.6 46.5 Q 105.075 47.325 104.25 47.85 A 5.665 5.665 0 0 1 102.507 48.578 A 6.4 6.4 0 0 1 102.413 48.6 A 9.222 9.222 0 0 1 100.608 48.823 A 8.497 8.497 0 0 1 100.425 48.825 Q 98.925 48.825 97.425 48.338 Q 95.925 47.85 94.538 46.988 Q 93.15 46.125 91.95 45.075 L 87.075 50.175 Q 89.7 53.1 93.45 54.825 Q 97.2 56.55 101.325 56.55 Q 103.95 56.55 106.388 55.763 Q 108.825 54.975 110.738 53.438 Q 112.65 51.9 113.775 49.65 A 10.478 10.478 0 0 0 114.735 46.587 A 13.944 13.944 0 0 0 114.9 44.4 A 13.779 13.779 0 0 0 114.733 42.199 Q 114.533 40.963 114.093 39.929 A 8.29 8.29 0 0 0 113.963 39.638 A 10.006 10.006 0 0 0 111.927 36.738 A 9.519 9.519 0 0 0 111.45 36.3 Q 109.875 34.95 108.038 33.975 Q 106.2 33 104.325 32.288 Q 102.45 31.575 100.875 30.9 A 12.575 12.575 0 0 1 99.742 30.35 Q 99.193 30.046 98.753 29.717 A 6.396 6.396 0 0 1 98.363 29.4 A 2.988 2.988 0 0 1 97.773 28.71 A 2.384 2.384 0 0 1 97.425 27.45 A 2.257 2.257 0 0 1 97.492 26.884 A 1.601 1.601 0 0 1 97.912 26.138 Q 98.4 25.65 99.15 25.388 Q 99.9 25.125 100.688 25.05 A 17.185 17.185 0 0 1 101.538 24.99 A 13.536 13.536 0 0 1 102.15 24.975 A 15.672 15.672 0 0 1 104.111 25.094 A 13.956 13.956 0 0 1 104.587 25.163 A 15.24 15.24 0 0 1 106.536 25.606 A 13.871 13.871 0 0 1 106.8 25.688 A 12.051 12.051 0 0 1 107.91 26.103 A 9.473 9.473 0 0 1 108.675 26.475 Z M 168.3 60.225 L 168.3 17.85 L 160.05 17.85 L 160.05 19.5 Q 158.925 18.675 157.688 18.15 Q 156.45 17.625 155.138 17.363 Q 153.825 17.1 152.4 17.1 Q 148.575 17.1 145.913 18.6 Q 143.25 20.1 141.863 22.875 A 12.735 12.735 0 0 0 140.741 26.329 A 17.722 17.722 0 0 0 140.475 29.475 L 140.475 42.15 Q 140.475 46.901 142.039 50.105 A 10.999 10.999 0 0 0 143.775 52.688 Q 146.991 56.232 152.984 56.323 A 20.928 20.928 0 0 0 153.3 56.325 Q 154.2 56.325 155.138 56.213 Q 156.075 56.1 156.975 55.875 A 11.403 11.403 0 0 0 158.338 55.445 A 10.154 10.154 0 0 0 158.663 55.313 A 7.278 7.278 0 0 0 159.532 54.872 A 5.965 5.965 0 0 0 160.05 54.525 L 160.05 59.4 Q 160.05 60.9 159.563 61.95 A 4.803 4.803 0 0 1 158.886 63.026 A 4.127 4.127 0 0 1 158.25 63.638 Q 157.425 64.275 156.45 64.538 A 7.7 7.7 0 0 1 155.261 64.763 A 6.497 6.497 0 0 1 154.575 64.8 L 156.6 71.25 A 20.033 20.033 0 0 0 159.539 71.046 Q 161.338 70.779 162.825 70.163 Q 165.45 69.075 166.875 66.638 A 9.463 9.463 0 0 0 167.849 64.211 Q 168.145 63.063 168.247 61.705 A 19.819 19.819 0 0 0 168.3 60.225 Z M 0 2.925 L 0 55.425 L 27.15 55.425 L 27.15 47.775 L 8.325 47.775 L 8.325 2.925 L 0 2.925 Z M 264.525 55.425 L 264.525 2.925 L 256.275 2.925 L 256.275 19.125 Q 253.875 18.075 251.663 17.625 Q 249.45 17.175 246.825 17.175 A 12.736 12.736 0 0 0 242.791 17.845 A 14.085 14.085 0 0 0 242.775 17.85 Q 240.75 18.525 239.138 19.913 A 9.959 9.959 0 0 0 236.87 22.761 A 11.765 11.765 0 0 0 236.55 23.4 Q 235.575 25.5 235.575 28.425 L 235.575 43.725 A 15.403 15.403 0 0 0 235.779 46.3 Q 236.078 48.06 236.813 49.463 Q 238.05 51.825 240.225 53.325 A 14.681 14.681 0 0 0 243.867 55.132 A 17.574 17.574 0 0 0 245.25 55.538 Q 248.1 56.25 251.25 56.25 Q 252.75 56.25 254.138 56.213 Q 255.525 56.175 256.875 56.138 Q 258.225 56.1 259.538 55.988 Q 260.85 55.875 262.088 55.725 Q 263.325 55.575 264.525 55.425 Z M 278.7 44.25 L 278.7 42.375 L 297.375 41.4 L 297.375 29.7 A 17.698 17.698 0 0 0 297.123 26.631 Q 296.73 24.402 295.725 22.688 Q 294.075 19.875 291.113 18.488 A 14.329 14.329 0 0 0 287.349 17.347 A 19.494 19.494 0 0 0 284.175 17.1 A 18.438 18.438 0 0 0 280.025 17.551 A 15.415 15.415 0 0 0 277.125 18.525 Q 273.975 19.95 272.138 22.8 A 11.081 11.081 0 0 0 270.652 26.457 Q 270.327 27.93 270.302 29.635 A 19.554 19.554 0 0 0 270.3 29.925 L 270.3 45.3 Q 270.3 48.088 271.197 50.158 A 9.143 9.143 0 0 0 271.237 50.25 Q 272.175 52.35 273.863 53.7 A 11.105 11.105 0 0 0 276.865 55.398 A 13.231 13.231 0 0 0 277.838 55.725 A 16.659 16.659 0 0 0 281.459 56.358 A 19.483 19.483 0 0 0 282.75 56.4 Q 286.125 56.4 289.538 55.425 Q 292.95 54.45 295.5 52.8 L 292.5 45.6 Q 290.175 46.8 287.588 47.7 A 18.804 18.804 0 0 1 285.615 48.275 Q 284.193 48.6 282.975 48.6 A 5.548 5.548 0 0 1 281.787 48.477 A 4.773 4.773 0 0 1 281.175 48.3 A 3.437 3.437 0 0 1 280.306 47.842 A 3 3 0 0 1 279.825 47.4 A 4.526 4.526 0 0 1 279.019 46.062 A 5.102 5.102 0 0 1 279 46.013 A 4.552 4.552 0 0 1 278.737 44.913 A 5.747 5.747 0 0 1 278.7 44.25 Z M 173.475 36.45 L 173.475 43.725 Q 173.475 46.622 174.252 48.742 A 9.532 9.532 0 0 0 174.675 49.725 Q 175.875 52.125 178.013 53.588 A 13.369 13.369 0 0 0 181.907 55.395 A 15.808 15.808 0 0 0 182.925 55.65 A 26.568 26.568 0 0 0 186.761 56.179 A 32.29 32.29 0 0 0 188.925 56.25 Q 190.425 56.25 191.85 56.213 Q 193.275 56.175 194.663 56.138 Q 196.05 56.1 197.363 55.988 Q 198.675 55.875 199.95 55.725 Q 201.225 55.575 202.425 55.425 L 202.425 32.4 Q 202.425 29.08 201.923 26.59 A 17.236 17.236 0 0 0 201.563 25.125 A 12.338 12.338 0 0 0 200.581 22.713 A 9.244 9.244 0 0 0 198.862 20.438 A 9.447 9.447 0 0 0 196.166 18.648 A 12.771 12.771 0 0 0 194.062 17.925 A 22.083 22.083 0 0 0 191.439 17.44 Q 190.142 17.274 188.664 17.212 A 43.925 43.925 0 0 0 186.825 17.175 L 186.15 22.875 Q 187.815 22.875 189.085 23.095 A 10.298 10.298 0 0 1 189.825 23.25 Q 191.325 23.625 192.3 24.45 A 4.375 4.375 0 0 1 193.388 25.859 A 5.786 5.786 0 0 1 193.725 26.7 Q 194.068 27.786 194.15 29.307 A 18.554 18.554 0 0 1 194.175 30.3 A 8.638 8.638 0 0 0 191.472 27.631 A 9.988 9.988 0 0 0 191.363 27.563 Q 189.6 26.475 187.575 25.913 A 15.502 15.502 0 0 0 185.042 25.423 A 13.11 13.11 0 0 0 183.675 25.35 Q 181.65 25.35 179.813 26.025 Q 177.975 26.7 176.55 28.05 A 8.79 8.79 0 0 0 174.878 30.254 A 11.112 11.112 0 0 0 174.3 31.5 A 11.342 11.342 0 0 0 173.681 33.788 Q 173.501 34.871 173.478 36.097 A 19.211 19.211 0 0 0 173.475 36.45 Z M 47.25 2.925 L 47.25 55.425 L 55.575 55.425 L 55.575 2.925 L 47.25 2.925 Z M 230.1 24.675 L 231.3 17.85 Q 230.1 17.4 228.6 17.063 Q 227.1 16.725 225.375 16.725 Q 222.975 16.725 220.65 17.4 A 14.918 14.918 0 0 0 217.047 18.966 A 13.79 13.79 0 0 0 216.45 19.35 L 216.45 17.85 L 208.125 17.85 L 208.125 55.425 L 216.45 55.425 L 216.45 26.25 Q 217.575 25.65 218.775 25.275 Q 219.975 24.9 221.213 24.638 Q 222.45 24.375 223.725 24.263 A 28.511 28.511 0 0 1 225.899 24.152 A 25.9 25.9 0 0 1 226.2 24.15 A 25.345 25.345 0 0 1 227.145 24.167 Q 228.459 24.216 229.163 24.413 L 230.1 24.675 Z M 32.4 17.85 L 32.4 55.425 L 40.725 55.425 L 40.725 17.85 L 32.4 17.85 Z M 62.1 17.85 L 62.1 55.425 L 70.425 55.425 L 70.425 17.85 L 62.1 17.85 Z M 256.275 27.6 L 256.275 48.3 L 255.938 48.338 A 5.18 5.18 0 0 1 255.683 48.359 Q 255.551 48.367 255.399 48.371 A 12.256 12.256 0 0 1 255.075 48.375 Q 254.55 48.375 253.913 48.413 Q 253.275 48.45 252.713 48.488 Q 252.164 48.524 251.793 48.525 A 7.604 7.604 0 0 1 251.775 48.525 A 23.859 23.859 0 0 1 250.28 48.481 Q 248.745 48.385 247.688 48.075 A 7.84 7.84 0 0 1 246.719 47.726 Q 245.879 47.354 245.363 46.838 A 4.114 4.114 0 0 1 244.338 45.111 A 4.952 4.952 0 0 1 244.275 44.888 A 9.256 9.256 0 0 1 244.032 43.497 A 12.01 12.01 0 0 1 243.975 42.3 L 243.975 29.475 Q 243.975 28.425 244.463 27.713 Q 244.95 27 245.738 26.588 Q 246.525 26.175 247.425 25.988 Q 248.325 25.8 249.225 25.8 A 16.251 16.251 0 0 1 251.234 25.918 Q 252.612 26.09 253.725 26.513 Q 255.535 27.201 256.227 27.574 A 4.491 4.491 0 0 1 256.275 27.6 Z M 160.05 26.4 L 160.05 44.925 A 2.2 2.2 0 0 1 159.95 45.564 Q 159.871 45.825 159.73 46.098 A 3.947 3.947 0 0 1 159.675 46.2 A 3.519 3.519 0 0 1 159.134 46.924 A 4.768 4.768 0 0 1 158.55 47.438 Q 157.847 47.965 156.813 48.328 A 9.268 9.268 0 0 1 156.675 48.375 A 7.941 7.941 0 0 1 155.604 48.646 Q 155.047 48.749 154.409 48.798 A 14.607 14.607 0 0 1 153.975 48.825 Q 152.25 48.9 151.088 48.15 Q 149.925 47.4 149.363 46.125 Q 148.8 44.85 148.8 43.425 L 148.8 30.075 A 9.193 9.193 0 0 1 148.869 28.919 Q 148.976 28.075 149.25 27.413 A 4.673 4.673 0 0 1 149.727 26.527 A 3.54 3.54 0 0 1 150.488 25.725 A 4.993 4.993 0 0 1 152.224 24.879 A 5.677 5.677 0 0 1 152.287 24.863 Q 153.3 24.6 154.35 24.6 A 6.116 6.116 0 0 1 155.458 24.706 A 7.82 7.82 0 0 1 156.263 24.9 A 25.177 25.177 0 0 1 157.47 25.29 A 20.663 20.663 0 0 1 158.138 25.538 A 26.5 26.5 0 0 1 158.691 25.761 Q 159.18 25.965 159.525 26.138 L 160.05 26.4 Z M 194.175 36.45 L 194.175 48.3 L 193.838 48.338 Q 193.579 48.366 193.189 48.395 A 36.775 36.775 0 0 1 192.938 48.413 Q 192.375 48.45 191.738 48.488 Q 191.1 48.525 190.538 48.563 Q 189.989 48.599 189.618 48.6 A 7.604 7.604 0 0 1 189.6 48.6 A 23.859 23.859 0 0 1 188.105 48.556 Q 186.57 48.46 185.513 48.15 A 7.38 7.38 0 0 1 184.544 47.797 Q 184.045 47.571 183.661 47.288 A 3.585 3.585 0 0 1 183.187 46.875 Q 182.4 46.05 182.138 44.925 Q 181.879 43.818 181.875 42.42 A 15.416 15.416 0 0 1 181.875 42.375 L 181.875 37.5 Q 181.875 36.63 182.107 35.992 A 2.924 2.924 0 0 1 182.212 35.738 A 3.2 3.2 0 0 1 182.635 35.065 A 2.657 2.657 0 0 1 183.112 34.613 A 3.584 3.584 0 0 1 184.095 34.109 A 4.294 4.294 0 0 1 184.425 34.013 A 6.409 6.409 0 0 1 185.846 33.827 A 7.169 7.169 0 0 1 186 33.825 Q 187.725 33.825 189.45 34.388 Q 191.06 34.913 192.311 35.471 A 20.772 20.772 0 0 1 192.487 35.55 Q 193.62 36.068 194.054 36.362 A 1.901 1.901 0 0 1 194.175 36.45 Z M 289.05 31.95 L 289.05 34.125 L 278.7 34.8 L 278.7 31.875 Q 278.7 29.775 279.113 28.313 Q 279.525 26.85 280.688 25.988 A 4.011 4.011 0 0 1 281.762 25.434 Q 282.729 25.096 284.1 25.05 A 7.325 7.325 0 0 1 284.485 25.033 Q 285.885 25.006 286.771 25.567 A 2.77 2.77 0 0 1 287.25 25.95 A 5.205 5.205 0 0 1 288.495 27.981 A 6.516 6.516 0 0 1 288.675 28.613 Q 289.05 30.225 289.05 31.95 Z M 75.975 3.225 L 77.025 11.25 L 81.75 11.25 L 82.8 3.225 A 3.905 3.905 0 0 0 82.686 2.252 A 2.633 2.633 0 0 0 81.788 0.825 A 3.66 3.66 0 0 0 79.495 0.001 A 4.595 4.595 0 0 0 79.387 0 A 3.903 3.903 0 0 0 77.964 0.254 A 3.6 3.6 0 0 0 76.988 0.825 A 2.668 2.668 0 0 0 76.051 2.42 A 4.064 4.064 0 0 0 75.975 3.225 Z M 36.6 2.175 A 4.855 4.855 0 0 0 34.791 2.504 A 4.49 4.49 0 0 0 33.413 3.375 A 3.974 3.974 0 0 0 32.116 6.108 A 5.449 5.449 0 0 0 32.1 6.525 Q 32.1 8.4 33.412 9.713 A 4.333 4.333 0 0 0 36.542 11.025 A 5.32 5.32 0 0 0 36.6 11.025 Q 38.475 11.025 39.787 9.713 A 4.333 4.333 0 0 0 41.1 6.584 A 5.32 5.32 0 0 0 41.1 6.525 A 4.699 4.699 0 0 0 40.875 5.039 A 3.877 3.877 0 0 0 39.787 3.375 A 4.543 4.543 0 0 0 36.658 2.175 A 5.814 5.814 0 0 0 36.6 2.175 Z M 66.3 2.175 A 4.855 4.855 0 0 0 64.491 2.504 A 4.49 4.49 0 0 0 63.113 3.375 A 3.974 3.974 0 0 0 61.816 6.108 A 5.449 5.449 0 0 0 61.8 6.525 Q 61.8 8.4 63.113 9.713 A 4.333 4.333 0 0 0 66.242 11.025 A 5.32 5.32 0 0 0 66.3 11.025 Q 68.175 11.025 69.488 9.713 A 4.333 4.333 0 0 0 70.8 6.584 A 5.32 5.32 0 0 0 70.8 6.525 A 4.699 4.699 0 0 0 70.575 5.039 A 3.877 3.877 0 0 0 69.487 3.375 A 4.543 4.543 0 0 0 66.358 2.175 A 5.814 5.814 0 0 0 66.3 2.175 Z" vector-effect="non-scaling-stroke"/></g></svg>