<svg viewBox="0 0 340.875 72.151" xmlns="http://www.w3.org/2000/svg"><g id="svgGroup" stroke-linecap="round" fill-rule="evenodd" font-size="9pt" stroke="#00000000" stroke-width=".6mm" fill="#000000"><path d="M 330 31.425 L 330 56.4 L 340.875 56.4 L 340.875 30.375 Q 340.875 27.939 340.459 26.075 A 12.767 12.767 0 0 0 340.275 25.35 Q 339.675 23.25 338.625 21.863 A 9.605 9.605 0 0 0 337.248 20.381 A 8.116 8.116 0 0 0 336.262 19.65 Q 334.95 18.825 333.45 18.45 Q 331.95 18.075 330.45 18.075 A 13.773 13.773 0 0 0 328.629 18.191 A 10.866 10.866 0 0 0 327.3 18.45 Q 326.076 18.773 325.156 19.178 A 9.574 9.574 0 0 0 324.862 19.313 A 19.388 19.388 0 0 0 324.387 19.55 Q 323.719 19.894 323.325 20.175 L 323.325 18.75 L 312.45 18.75 L 312.45 56.4 L 323.325 56.4 L 323.325 29.55 Q 323.936 29.184 324.447 28.967 A 5.712 5.712 0 0 1 324.675 28.875 Q 325.275 28.65 325.838 28.538 A 6.394 6.394 0 0 1 326.308 28.461 Q 326.597 28.425 326.85 28.425 Q 327.6 28.425 328.163 28.65 Q 328.725 28.875 329.138 29.288 Q 329.55 29.7 329.775 30.263 Q 330 30.825 330 31.425 Z M 177.3 61.125 L 177.3 18.75 L 166.35 18.75 L 166.35 20.25 Q 165.45 19.425 164.325 18.938 Q 163.2 18.45 162 18.225 Q 160.8 18 159.525 18 A 11.693 11.693 0 0 0 156.528 18.37 A 9.514 9.514 0 0 0 153.9 19.5 A 9.908 9.908 0 0 0 150.527 23.061 A 12.149 12.149 0 0 0 150.15 23.775 A 12.927 12.927 0 0 0 149.077 27.125 Q 148.809 28.595 148.8 30.267 A 21.54 21.54 0 0 0 148.8 30.375 L 148.8 42.975 A 24.301 24.301 0 0 0 149.108 46.973 Q 149.784 51.024 151.95 53.55 Q 155.1 57.225 160.275 57.225 Q 161.1 57.225 161.925 57.113 Q 162.75 57 163.613 56.85 A 9.858 9.858 0 0 0 164.584 56.633 A 7.962 7.962 0 0 0 165.187 56.438 A 9.888 9.888 0 0 0 165.814 56.184 Q 166.146 56.035 166.425 55.875 L 166.425 60.3 Q 166.425 61.321 166.085 62.064 A 3.083 3.083 0 0 1 166.013 62.213 Q 165.6 63 164.888 63.488 A 4.553 4.553 0 0 1 163.656 64.09 A 4.242 4.242 0 0 1 163.388 64.163 Q 162.6 64.35 161.775 64.35 L 164.025 72.15 Q 167.864 72.15 170.794 71.136 A 15.167 15.167 0 0 0 171 71.063 A 9.92 9.92 0 0 0 173.878 69.47 A 8.824 8.824 0 0 0 175.65 67.538 A 8.953 8.953 0 0 0 176.875 64.766 Q 177.187 63.575 177.27 62.17 A 17.715 17.715 0 0 0 177.3 61.125 Z M 0 3.825 L 0 56.325 L 27.15 56.325 L 27.15 46.5 L 10.95 46.5 L 10.95 3.825 L 0 3.825 Z M 116.775 29.4 L 120 20.85 A 13.646 13.646 0 0 0 118.425 19.898 A 17.887 17.887 0 0 0 117 19.238 Q 115.275 18.525 113.363 18.15 Q 111.45 17.775 109.5 17.775 A 18.873 18.873 0 0 0 106.448 18.013 A 15.309 15.309 0 0 0 104.287 18.525 A 12.787 12.787 0 0 0 100.85 20.194 A 11.863 11.863 0 0 0 100.125 20.738 Q 98.325 22.2 97.387 24.3 A 10.534 10.534 0 0 0 96.617 26.954 A 14.159 14.159 0 0 0 96.45 29.175 A 13.303 13.303 0 0 0 96.608 31.278 Q 96.798 32.467 97.218 33.468 A 8.234 8.234 0 0 0 97.275 33.6 A 10.426 10.426 0 0 0 98.658 35.913 A 9.319 9.319 0 0 0 99.45 36.788 Q 100.8 38.1 102.413 39 Q 104.025 39.9 105.6 40.575 A 268.284 268.284 0 0 1 107.119 41.232 A 214.812 214.812 0 0 1 108.525 41.85 A 14.713 14.713 0 0 1 109.464 42.306 Q 109.914 42.546 110.284 42.791 A 7.071 7.071 0 0 1 110.7 43.088 A 2.263 2.263 0 0 1 111.219 43.638 A 1.9 1.9 0 0 1 111.525 44.7 A 2.549 2.549 0 0 1 111.463 45.274 A 1.952 1.952 0 0 1 111.225 45.863 Q 110.925 46.35 110.4 46.613 A 5.068 5.068 0 0 1 109.587 46.932 A 6.014 6.014 0 0 1 109.237 47.025 Q 108.6 47.175 107.925 47.175 A 8.839 8.839 0 0 1 105.858 46.922 A 10.447 10.447 0 0 1 105.15 46.725 Q 103.725 46.275 102.375 45.563 A 11.995 11.995 0 0 1 100.975 44.702 A 9.72 9.72 0 0 1 100.05 43.95 L 94.725 50.775 Q 97.575 53.925 101.4 55.688 Q 105.225 57.45 109.35 57.45 Q 111.975 57.45 114.488 56.625 Q 117 55.8 118.988 54.225 Q 120.975 52.65 122.175 50.288 A 10.897 10.897 0 0 0 123.206 47.029 A 14.454 14.454 0 0 0 123.375 44.775 Q 123.375 42.361 122.722 40.571 A 8.421 8.421 0 0 0 122.513 40.05 A 10.25 10.25 0 0 0 121.177 37.814 A 8.972 8.972 0 0 0 120.225 36.788 Q 118.8 35.475 117.113 34.575 A 25.212 25.212 0 0 0 114.159 33.23 A 22.939 22.939 0 0 0 113.738 33.075 Q 112.05 32.475 110.625 31.95 A 16.641 16.641 0 0 1 109.673 31.568 Q 109.233 31.374 108.865 31.175 A 7.503 7.503 0 0 1 108.337 30.863 Q 107.475 30.3 107.475 29.475 Q 107.475 28.95 107.738 28.688 A 1.756 1.756 0 0 1 108.025 28.458 Q 108.211 28.338 108.45 28.238 Q 108.9 28.05 109.387 28.013 A 13.022 13.022 0 0 1 110.261 27.976 A 14.489 14.489 0 0 1 110.4 27.975 Q 111.6 27.975 112.8 28.2 A 26.523 26.523 0 0 1 114.241 28.511 A 22.427 22.427 0 0 1 115.05 28.725 A 11.38 11.38 0 0 1 115.785 28.961 Q 116.14 29.089 116.438 29.229 A 5.492 5.492 0 0 1 116.775 29.4 Z M 273.525 56.325 L 273.525 3.825 L 262.65 3.825 L 262.65 19.575 A 21.899 21.899 0 0 0 260.431 18.802 A 17.285 17.285 0 0 0 258.788 18.413 A 20.276 20.276 0 0 0 256.486 18.131 A 25.507 25.507 0 0 0 254.775 18.075 Q 252.75 18.075 250.875 18.75 Q 249 19.425 247.613 20.813 A 9.374 9.374 0 0 0 246.002 22.999 A 11.801 11.801 0 0 0 245.4 24.3 A 11.239 11.239 0 0 0 244.794 26.528 Q 244.575 27.817 244.575 29.325 L 244.575 44.625 A 16.698 16.698 0 0 0 244.764 47.208 Q 244.985 48.618 245.464 49.793 A 9.394 9.394 0 0 0 245.812 50.55 Q 247.05 52.95 249.225 54.375 Q 251.4 55.8 254.213 56.475 A 24.651 24.651 0 0 0 258.469 57.097 A 29.227 29.227 0 0 0 260.25 57.15 Q 261.675 57.15 263.025 57.075 Q 264.375 57 265.688 56.963 Q 267 56.925 268.313 56.813 Q 269.625 56.7 270.938 56.55 Q 272.25 56.4 273.525 56.325 Z M 290.25 44.475 L 290.25 43.125 L 307.35 42.225 L 307.35 30.6 Q 307.35 26.4 305.625 23.588 Q 303.9 20.775 300.825 19.388 A 15.362 15.362 0 0 0 296.83 18.229 A 20.524 20.524 0 0 0 293.7 18 A 19.825 19.825 0 0 0 289.407 18.448 A 16.354 16.354 0 0 0 286.387 19.425 Q 283.125 20.85 281.213 23.7 A 10.887 10.887 0 0 0 279.64 27.472 Q 279.3 29.022 279.3 30.825 L 279.3 46.2 A 14.093 14.093 0 0 0 279.487 48.551 Q 279.727 49.969 280.275 51.15 Q 281.25 53.25 283.013 54.6 Q 284.775 55.95 287.138 56.625 Q 289.5 57.3 292.2 57.3 Q 295.725 57.3 299.213 56.325 A 26.558 26.558 0 0 0 303.07 54.932 A 21.719 21.719 0 0 0 305.4 53.7 L 302.25 45.075 A 44.104 44.104 0 0 1 300.169 45.891 A 59.903 59.903 0 0 1 297.825 46.688 A 20.419 20.419 0 0 1 296.098 47.16 Q 295.262 47.347 294.52 47.423 A 9.518 9.518 0 0 1 293.55 47.475 A 5.172 5.172 0 0 1 292.818 47.426 A 3.813 3.813 0 0 1 292.088 47.25 Q 291.515 47.048 291.154 46.725 A 1.976 1.976 0 0 1 291.075 46.65 Q 290.7 46.275 290.475 45.713 A 3.167 3.167 0 0 1 290.264 44.806 A 3.814 3.814 0 0 1 290.25 44.475 Z M 182.475 37.575 L 182.475 44.625 Q 182.475 47.522 183.252 49.642 A 9.532 9.532 0 0 0 183.675 50.625 Q 184.875 53.025 187.013 54.488 A 13.369 13.369 0 0 0 190.907 56.295 A 15.808 15.808 0 0 0 191.925 56.55 A 26.568 26.568 0 0 0 195.761 57.08 A 32.29 32.29 0 0 0 197.925 57.15 Q 199.425 57.15 200.85 57.113 Q 202.275 57.075 203.663 57.038 Q 205.05 57 206.363 56.888 Q 207.675 56.775 208.95 56.625 Q 210.225 56.475 211.425 56.325 L 211.425 33.3 Q 211.425 29.981 210.923 27.491 A 17.236 17.236 0 0 0 210.563 26.025 A 12.006 12.006 0 0 0 209.552 23.576 A 9.149 9.149 0 0 0 207.825 21.338 Q 205.95 19.575 202.913 18.825 A 22.718 22.718 0 0 0 200.439 18.368 Q 198.216 18.075 195.45 18.075 L 194.175 24.3 A 11.711 11.711 0 0 1 195.615 24.385 A 9.043 9.043 0 0 1 196.762 24.6 A 6.59 6.59 0 0 1 197.872 24.99 A 5.141 5.141 0 0 1 198.75 25.5 Q 199.575 26.1 200.025 27.188 Q 200.412 28.122 200.466 29.416 A 10.326 10.326 0 0 1 200.475 29.85 Q 199.725 28.875 198.413 28.125 A 11.649 11.649 0 0 0 195.939 27.079 A 13.22 13.22 0 0 0 195.525 26.963 Q 193.95 26.55 192.3 26.55 A 11.466 11.466 0 0 0 188.843 27.065 A 10.793 10.793 0 0 0 188.475 27.188 Q 186.675 27.825 185.325 29.175 A 8.41 8.41 0 0 0 183.827 31.242 A 10.856 10.856 0 0 0 183.225 32.625 Q 182.526 34.584 182.478 37.194 A 21.09 21.09 0 0 0 182.475 37.575 Z M 49.875 3.825 L 49.875 56.325 L 60.75 56.325 L 60.75 3.825 L 49.875 3.825 Z M 239.325 28.95 L 240.3 18.75 A 12.614 12.614 0 0 0 239.138 18.286 A 16.476 16.476 0 0 0 238.088 17.963 Q 236.85 17.625 235.425 17.625 Q 233.475 17.625 231.563 18.3 Q 229.65 18.975 228.075 20.25 L 228.075 18.75 L 217.125 18.75 L 217.125 56.325 L 228.075 56.325 L 228.075 30.525 Q 228.975 29.925 229.988 29.55 Q 231 29.175 232.013 28.913 Q 233.025 28.65 234.075 28.538 A 19.598 19.598 0 0 1 235.608 28.433 A 17.398 17.398 0 0 1 236.1 28.425 Q 237.434 28.425 238.204 28.597 A 3.385 3.385 0 0 1 238.537 28.688 L 239.325 28.95 Z M 32.4 18.75 L 32.4 56.325 L 43.35 56.325 L 43.35 18.75 L 32.4 18.75 Z M 67.2 18.75 L 67.2 56.325 L 78.15 56.325 L 78.15 18.75 L 67.2 18.75 Z M 262.575 30.075 L 262.65 46.35 L 262.463 46.388 A 1.624 1.624 0 0 1 262.32 46.409 Q 262.246 46.417 262.16 46.421 A 3.967 3.967 0 0 1 261.975 46.425 A 5.729 5.729 0 0 0 261.667 46.434 Q 261.493 46.444 261.3 46.463 A 7.555 7.555 0 0 1 260.802 46.497 A 6.4 6.4 0 0 1 260.587 46.5 L 260.025 46.5 A 12.79 12.79 0 0 1 259.189 46.475 Q 258.33 46.418 257.738 46.238 A 4.153 4.153 0 0 1 257.121 45.999 Q 256.685 45.785 256.388 45.488 A 2.614 2.614 0 0 1 255.881 44.761 A 3.479 3.479 0 0 1 255.675 44.213 A 5.718 5.718 0 0 1 255.493 43.268 A 7.461 7.461 0 0 1 255.45 42.45 L 255.45 31.575 A 2.916 2.916 0 0 1 255.5 31.021 A 2.126 2.126 0 0 1 255.712 30.413 A 1.934 1.934 0 0 1 256.162 29.849 A 1.823 1.823 0 0 1 256.425 29.663 Q 256.875 29.4 257.4 29.25 A 3.951 3.951 0 0 1 258.266 29.108 A 4.612 4.612 0 0 1 258.525 29.1 A 9.2 9.2 0 0 1 259.777 29.182 Q 260.456 29.275 261.038 29.475 A 32.12 32.12 0 0 1 261.541 29.654 Q 262.009 29.824 262.315 29.956 A 5.165 5.165 0 0 1 262.575 30.075 Z M 166.425 29.4 L 166.425 44.4 Q 166.425 44.613 166.313 44.881 A 2.525 2.525 0 0 1 166.2 45.113 A 2.118 2.118 0 0 1 165.853 45.576 A 2.819 2.819 0 0 1 165.525 45.863 Q 165.103 46.179 164.483 46.397 A 5.562 5.562 0 0 1 164.4 46.425 Q 163.845 46.61 163.088 46.643 A 7.778 7.778 0 0 1 162.75 46.65 A 3.553 3.553 0 0 1 162.478 46.661 Q 162.097 46.661 161.766 46.574 A 2.213 2.213 0 0 1 161.1 46.275 Q 160.425 45.825 160.088 45.075 Q 159.75 44.325 159.75 43.5 L 159.75 31.575 A 5.918 5.918 0 0 1 159.781 30.949 Q 159.814 30.642 159.881 30.383 A 2.592 2.592 0 0 1 160.013 30 A 2.821 2.821 0 0 1 160.367 29.397 A 2.392 2.392 0 0 1 160.725 29.025 Q 161.175 28.65 161.775 28.5 Q 162.375 28.35 162.975 28.35 Q 163.5 28.35 164.1 28.538 A 31.687 31.687 0 0 1 164.821 28.772 A 26.437 26.437 0 0 1 165.225 28.913 A 19.659 19.659 0 0 1 165.476 29.004 Q 165.811 29.129 166.053 29.235 A 6.747 6.747 0 0 1 166.087 29.25 L 166.425 29.4 Z M 37.875 1.95 A 6.326 6.326 0 0 0 35.83 2.269 A 5.418 5.418 0 0 0 33.863 3.45 A 4.981 4.981 0 0 0 32.291 6.658 A 6.935 6.935 0 0 0 32.25 7.425 A 5.482 5.482 0 0 0 33.859 11.397 A 5.958 5.958 0 0 0 33.863 11.4 Q 35.475 13.05 37.875 13.05 Q 40.275 13.05 41.887 11.4 A 5.481 5.481 0 0 0 43.5 7.43 A 6.441 6.441 0 0 0 43.5 7.425 A 6.152 6.152 0 0 0 43.244 5.608 A 4.848 4.848 0 0 0 41.887 3.45 A 5.559 5.559 0 0 0 38.354 1.966 A 7.315 7.315 0 0 0 37.875 1.95 Z M 72.675 1.95 A 6.326 6.326 0 0 0 70.63 2.269 A 5.418 5.418 0 0 0 68.663 3.45 A 4.981 4.981 0 0 0 67.091 6.658 A 6.935 6.935 0 0 0 67.05 7.425 A 5.482 5.482 0 0 0 68.659 11.397 A 5.958 5.958 0 0 0 68.663 11.4 Q 70.275 13.05 72.675 13.05 Q 75.075 13.05 76.687 11.4 A 5.481 5.481 0 0 0 78.3 7.43 A 6.441 6.441 0 0 0 78.3 7.425 A 6.152 6.152 0 0 0 78.044 5.608 A 4.848 4.848 0 0 0 76.687 3.45 A 5.559 5.559 0 0 0 73.154 1.966 A 7.315 7.315 0 0 0 72.675 1.95 Z M 83.175 3.75 L 84.375 12.15 L 89.925 12.15 L 91.125 3.75 A 4.645 4.645 0 0 0 90.999 2.633 A 2.995 2.995 0 0 0 89.925 0.938 Q 88.725 0 87.15 0 Q 85.575 0 84.375 0.938 A 3.015 3.015 0 0 0 83.281 2.72 A 4.731 4.731 0 0 0 83.175 3.75 Z M 200.55 37.8 L 200.55 47.85 L 200.363 47.888 A 1.53 1.53 0 0 1 200.231 47.908 Q 200.092 47.923 199.901 47.925 A 5.693 5.693 0 0 1 199.838 47.925 A 6.812 6.812 0 0 0 199.356 47.943 A 8.037 8.037 0 0 0 199.125 47.963 Q 198.75 48 198.413 48.038 Q 198.075 48.075 197.775 48.075 A 13.375 13.375 0 0 1 196.904 48.049 Q 196.48 48.021 196.119 47.964 A 5.721 5.721 0 0 1 195.562 47.85 A 3.637 3.637 0 0 1 194.996 47.655 Q 194.538 47.45 194.25 47.138 Q 193.8 46.65 193.613 46.013 A 4.627 4.627 0 0 1 193.443 45.083 A 5.603 5.603 0 0 1 193.425 44.625 L 193.425 38.625 A 3.254 3.254 0 0 1 193.463 38.113 A 2.359 2.359 0 0 1 193.612 37.575 Q 193.8 37.125 194.138 36.863 A 2.516 2.516 0 0 1 194.707 36.533 A 2.995 2.995 0 0 1 194.925 36.45 Q 195.375 36.3 195.9 36.3 Q 196.875 36.3 197.85 36.6 A 17.545 17.545 0 0 1 198.755 36.905 Q 199.187 37.064 199.563 37.233 A 10.546 10.546 0 0 1 199.575 37.238 A 9.484 9.484 0 0 1 199.898 37.39 Q 200.378 37.628 200.55 37.8 Z M 296.4 32.1 L 296.4 33.825 L 290.25 34.275 L 290.25 32.025 A 11.654 11.654 0 0 1 290.287 31.071 Q 290.325 30.604 290.404 30.2 A 5.862 5.862 0 0 1 290.513 29.738 A 3.105 3.105 0 0 1 290.846 28.956 A 2.502 2.502 0 0 1 291.45 28.275 A 2.352 2.352 0 0 1 292.073 27.937 Q 292.378 27.822 292.755 27.756 A 6.088 6.088 0 0 1 293.475 27.675 Q 294.542 27.609 295.164 28.105 A 1.778 1.778 0 0 1 295.313 28.238 Q 295.95 28.875 296.175 29.888 A 9.388 9.388 0 0 1 296.368 31.218 A 11.722 11.722 0 0 1 296.4 32.1 Z" vector-effect="non-scaling-stroke"/></g></svg>